<svg version="1.2" xmlns="http://www.w3.org/2000/svg" viewBox="0 0 1024 1024" width="1024" height="1024">
	<title>go-original-wordmark-svg</title>
	<style>
		.s0 { fill: #00acd7 } 
	</style>
	<g id="Layer">
		<path id="Layer" fill-rule="evenodd" class="s0" d="m46.1 69.2c-1.2 0-1.5-0.6-0.9-1.5l6.3-8.1c0.6-0.9 2.1-1.5 3.3-1.5h106.2c1.2 0 1.5 0.9 0.9 1.8l-5 7.8c-0.6 0.9-2.1 1.8-3 1.8zm95.8 27c1.2 0 2.4-0.6 2.7-1.7l2.4-7.2c0.3-0.9-0.3-1.8-1.5-1.8h-135.7c-1.2 0-2.7 0.6-3.3 1.5l-6.3 8c-0.5 0.9-0.2 1.5 0.9 1.5zm-3.8 28c0.9 0 2.1-0.9 2.1-2.1l0.5-7.1c0-1.2-0.5-2.1-1.7-2.1h-59.6c-1.2 0-2.3 0.9-2.9 1.8l-4.2 7.4c-0.6 0.9-0.3 1.8 0.9 1.8zm247-65.5c-7.4-17.2-18.7-31.5-34.5-41.9-24.1-16.4-50.9-19.7-78.9-14.6-34.2 6.2-62.2 23.8-83.3 51.5-19.7 25.6-29.2 54.7-25.3 87.2 3.3 27.4 15.8 49.4 37.8 66.1 23.8 17.8 50.9 23.5 80 19.6 35.5-4.8 63.4-22.3 84.9-50.6 13.1-17.3 21.1-36.9 24.4-58.3 1.2-8.1 1.2-16.1 1.8-24.1h-108.4c-4.4 0-6.5 2.9-7.4 4.7-4.2 7.8-11.3 23.2-15.2 32.5-2.1 5-0.6 8.9 5.7 8.9h57.4c-3 4.2-5.4 7.7-8 11-13.4 15.2-30.4 22.3-50.6 19.6-23.5-3.2-39.9-22.9-40.2-46.7-0.3-24.1 10.1-43.4 30.3-56.5 17-11 35.2-13.7 53.9-4.5 6.3 3 9.5 6.2 14 11.3 3.9 4.5 4.2 4.2 8.6 3 18.5-4.8 31.3-8.3 50.1-13.1 3.5-0.9 4.7-2.4 2.9-5.1z"/>
		<path id="Layer" fill-rule="evenodd" class="s0" d="m508.5 1024c-106.9-2.3-204.4-32.8-286.7-103.3-69.3-59.9-112.8-136.3-126.9-226.7-21.2-132.8 15.2-250.3 95.1-354.8 85.7-112.9 189.1-171.6 328.9-196.3 119.8-21.2 232.6-9.5 334.8 59.8 92.9 63.4 150.4 149.2 165.7 262 20 158.6-25.7 287.8-135 398.3-77.5 78.7-172.7 128.1-281.9 150.4-31.7 5.9-63.4 7.1-94 10.6zm279.5-474.7c-1.1-15.3-1.2-27-3.5-38.8-21.2-116.3-128.1-182-239.7-156.1-109.3 24.6-179.7 94-205.5 204.4-21.2 91.6 23.5 184.5 108.1 222 64.6 28.2 129.2 24.7 191.5-7.1 92.8-48.2 143.3-123.4 149.1-224.4z"/>
	</g>
</svg>